# xmcd
#
# Track frame offsets: 
#        150
#        12906
#        34966
#        57273
#        86531
#        106430
#        127018
#        143813
#        182978
#        199082
#        207759
#        219202
#        232274
#        261208
#        277186
#        294202
#
# Disc length: 4096 seconds
#
# Revision: 0
# Processed by: cddbd v1.5.2PL0 Copyright (c) Steve Scherf et al.
# Submitted via: ExactAudioCopy v0.99pb4
#
DISCID=f60ffe10
DTITLE=Elvis Presley - Elvis Country FTD Disc 2
DYEAR=1900
DGENRE=Country
TTITLE0=I Really Don't Want To Know - Undubbed
TTITLE1=Faded Love - Undubbed Takes 2 and 3
TTITLE2=Tomorrow Never Comes - Undubbed Takes 12 and 13
TTITLE3=Make The World Go Away - Undubbed Takes 1 and 3
TTITLE4=Funny How Time Slips Away - Undubbed
TTITLE5=I Washed My Hands In Muddy Water - Undubbed
TTITLE6=I Didn't Make It On Playing Guitar
TTITLE7=Tomorrow Never Comes - Takes 3 and 11
TTITLE8=There Goes My Everything - Take 1
TTITLE9=September Warm Up - Instrumental
TTITLE10=Snowbird - Takes 4,5 and 2
TTITLE11=Where Did They Go Lord - Takes 2 and 3
TTITLE12=Whole Lotta Shakin' Goin' On - Rough Mix Without Horns
TTITLE13=When I'm Over You - Undubbed Rough Mix
TTITLE14=The Next Step Is Love - Undubbed Rough Mix
TTITLE15=Love Letters - Undubbed Rough Mix
EXTD=
EXTT0=
EXTT1=
EXTT2=
EXTT3=
EXTT4=
EXTT5=
EXTT6=
EXTT7=
EXTT8=
EXTT9=
EXTT10=
EXTT11=
EXTT12=
EXTT13=
EXTT14=
EXTT15=
PLAYORDER=
